<?xml version="1.0" encoding="utf-8"?>
<!-- Generator: Adobe Illustrator 25.1.0, SVG Export Plug-In . SVG Version: 6.00 Build 0)  -->
<svg version="1.1" id="Layer_1" xmlns="http://www.w3.org/2000/svg" xmlns:xlink="http://www.w3.org/1999/xlink" x="0px" y="0px"
	 viewBox="0 0 86 86" style="enable-background:new 0 0 86 86;" xml:space="preserve">
<style type="text/css">
	.st0{fill:#FCFCFC;}
</style>
<path class="st0" d="M49.7,43L84.6,8.1c1.8-1.8,1.8-4.8,0-6.7c-1.8-1.9-4.8-1.8-6.7,0L43,36.3L8.1,1.4c-1.8-1.8-4.8-1.8-6.7,0
	c-1.9,1.8-1.8,4.8,0,6.7L36.3,43L1.4,78c-1.8,1.8-1.8,4.8,0,6.7c1,1,2.1,1.3,3.3,1.3c1.2,0,2.4-0.5,3.3-1.3L43,49.7L78,84.7
	c1,1,2.1,1.3,3.3,1.3s2.4-0.5,3.3-1.3c1.8-1.8,1.8-4.8,0-6.7L49.7,43z"/>
</svg>
