<svg width="86" height="86" viewBox="0 0 86 86" fill="none" xmlns="http://www.w3.org/2000/svg">
<path d="M49.7004 43.03L84.6397 8.08099C86.4534 6.26669 86.4534 3.30654 84.6397 1.39676C82.8259 -0.513024 79.8665 -0.417535 77.9573 1.39676L43.018 36.3457L8.07874 1.39676C6.26496 -0.417535 3.30562 -0.417535 1.39637 1.39676C-0.512882 3.21105 -0.417419 6.17121 1.39637 8.08099L36.3356 43.03L1.39637 77.9789C-0.417419 79.7932 -0.417419 82.7534 1.39637 84.6632C2.35099 85.618 3.49654 86 4.73756 86C5.97857 86 7.12412 85.5226 8.07874 84.6632L43.018 49.7142L77.9573 84.6632C78.9119 85.618 80.0575 86 81.2985 86C82.5395 86 83.685 85.5226 84.6397 84.6632C86.4534 82.8489 86.4534 79.8887 84.6397 77.9789L49.7004 43.03Z" fill="black"/>
</svg>
