<svg width="102" height="88" viewBox="0 0 102 88" fill="none" xmlns="http://www.w3.org/2000/svg">
<path d="M27.4505 1C20.7195 1 14.0039 3.59655 8.87958 8.7467C-1.36899 19.047 -1.35631 35.7225 8.87958 46.0298L48.5328 86.0014C48.8483 86.3179 49.2232 86.5691 49.636 86.7405C50.0488 86.9119 50.4913 87 50.9382 87C51.3851 87 51.8277 86.9119 52.2404 86.7405C52.6532 86.5691 53.0281 86.3179 53.3436 86.0014C66.5809 72.6974 79.8302 59.4047 93.0675 46.1006C103.316 35.8003 103.316 19.0823 93.0675 8.78207C82.819 -1.5182 66.1391 -1.5183 55.8904 8.78207L51.0088 13.7343L46.0566 8.7467C40.9323 3.59656 34.1813 1 27.4505 1V1ZM27.4505 7.72088C32.4169 7.72088 37.4071 9.66388 41.2459 13.5221L48.6035 20.915C48.919 21.2316 49.2939 21.4827 49.7066 21.6541C50.1194 21.8254 50.5619 21.9136 51.0088 21.9136C51.4558 21.9136 51.8983 21.8254 52.3111 21.6541C52.7238 21.4827 53.0987 21.2316 53.4142 20.915L60.7012 13.5574C68.3789 5.84091 80.5791 5.84106 88.2567 13.5574C95.9344 21.2738 95.9344 33.5735 88.2567 41.2899C75.8189 53.7906 63.3761 66.32 50.9382 78.8207L13.6903 41.2545C6.01736 33.5279 6.01261 21.2384 13.6903 13.5221C17.5291 9.66389 22.484 7.72088 27.4505 7.72088Z" fill="black" stroke="black"/>
</svg>
