<svg width="26" height="24" viewBox="0 0 26 24" fill="none" xmlns="http://www.w3.org/2000/svg">
<path d="M21.6505 8.29079L13.6505 0.290793C13.4631 0.104542 13.2096 0 12.9455 0C12.6813 0 12.4278 0.104542 12.2405 0.290793L4.24046 8.29079L0.240457 12.2908C0.0766307 12.4821 -0.00897537 12.7282 0.000745782 12.9798C0.0104669 13.2315 0.114799 13.4703 0.292894 13.6484C0.470988 13.8265 0.709728 13.9308 0.961404 13.9405C1.21308 13.9502 1.45916 13.8646 1.65046 13.7008L3.94046 11.4108V21.0008C3.94046 21.7964 4.25653 22.5595 4.81914 23.1221C5.38175 23.6847 6.14481 24.0008 6.94046 24.0008H18.9405C19.7361 24.0008 20.4992 23.6847 21.0618 23.1221C21.6244 22.5595 21.9405 21.7964 21.9405 21.0008V11.4108L24.2305 13.7008C24.4218 13.8646 24.6678 13.9502 24.9195 13.9405C25.1712 13.9308 25.4099 13.8265 25.588 13.6484C25.7661 13.4703 25.8704 13.2315 25.8802 12.9798C25.8899 12.7282 25.8043 12.4821 25.6405 12.2908L21.6505 8.29079ZM19.9405 21.0008C19.9405 21.266 19.8351 21.5204 19.6476 21.7079C19.46 21.8954 19.2057 22.0008 18.9405 22.0008H6.94046C6.67524 22.0008 6.42089 21.8954 6.23335 21.7079C6.04581 21.5204 5.94046 21.266 5.94046 21.0008V9.41079L12.9405 2.41079L19.9405 9.41079V21.0008Z" fill="black"/>
</svg>
