<svg width="26" height="26" viewBox="0 0 26 26" fill="none" xmlns="http://www.w3.org/2000/svg">
<path fill-rule="evenodd" clip-rule="evenodd" d="M13 25C19.6274 25 25 19.6274 25 13C25 6.37258 19.6274 1 13 1C6.37258 1 1 6.37258 1 13C1 19.6274 6.37258 25 13 25ZM13 24.04C19.0972 24.04 24.04 19.0972 24.04 13C24.04 6.90278 19.0972 1.96 13 1.96C6.90278 1.96 1.96 6.90278 1.96 13C1.96 19.0972 6.90278 24.04 13 24.04Z" fill="black" stroke="black" stroke-width="0.8"/>
<path fill-rule="evenodd" clip-rule="evenodd" d="M20.9328 21.64C20.0694 18.0598 16.8453 15.4 13 15.4C9.15469 15.4 5.9306 18.0598 5.06717 21.64H6.05884C6.89907 18.5957 9.68846 16.36 13 16.36C16.3116 16.36 19.1009 18.5957 19.9412 21.64H20.9328Z" fill="black" stroke="black" stroke-width="0.8"/>
<path fill-rule="evenodd" clip-rule="evenodd" d="M13 13.96C15.1208 13.96 16.84 12.2407 16.84 10.12C16.84 7.99919 15.1208 6.27997 13 6.27997C10.8792 6.27997 9.16 7.99919 9.16 10.12C9.16 12.2407 10.8792 13.96 13 13.96ZM13 13C14.5906 13 15.88 11.7105 15.88 10.12C15.88 8.52939 14.5906 7.23997 13 7.23997C11.4094 7.23997 10.12 8.52939 10.12 10.12C10.12 11.7105 11.4094 13 13 13Z" fill="black" stroke="black" stroke-width="0.8"/>
</svg>
