<svg width="86" height="85" viewBox="0 0 86 85" fill="none" xmlns="http://www.w3.org/2000/svg">
<path fill-rule="evenodd" clip-rule="evenodd" d="M61.5978 54.8185L84.7308 77.683C85.5438 78.4872 86.0004 79.5777 86 80.7147C85.9996 81.8516 85.5423 82.9418 84.7286 83.7455C83.9149 84.5491 82.8116 85.0004 81.6613 85C80.511 84.9996 79.408 84.5476 78.5949 83.7434L55.462 60.8788C48.5467 66.1729 39.8506 68.6642 31.1429 67.8459C22.4352 67.0277 14.3698 62.9614 8.58767 56.4743C2.80552 49.9872 -0.259128 41.5665 0.0171834 32.9253C0.293495 24.2841 3.89001 16.0715 10.0751 9.95817C16.2601 3.84487 24.5692 0.290089 33.3118 0.016984C42.0544 -0.256121 50.574 2.77297 57.1373 8.48803C63.7006 14.2031 67.8146 22.1748 68.6424 30.7815C69.4702 39.3882 66.9497 47.9834 61.5935 54.8185H61.5978ZM34.4016 59.4976C41.2439 59.4976 47.8059 56.8111 52.6441 52.029C57.4823 47.2469 60.2004 40.7611 60.2004 33.9982C60.2004 27.2353 57.4823 20.7494 52.6441 15.9673C47.8059 11.1853 41.2439 8.49873 34.4016 8.49873C27.5593 8.49873 20.9973 11.1853 16.1591 15.9673C11.3209 20.7494 8.6028 27.2353 8.6028 33.9982C8.6028 40.7611 11.3209 47.2469 16.1591 52.029C20.9973 56.8111 27.5593 59.4976 34.4016 59.4976V59.4976Z" fill="black"/>
</svg>
