<svg width="26" height="26" viewBox="0 0 26 26" fill="none" xmlns="http://www.w3.org/2000/svg">
<path d="M14.2464 25H11.7533C11.1032 25 10.5547 24.5344 10.4488 23.8933L10.0301 21.3545C9.74667 21.2529 9.46693 21.1369 9.19333 21.0064L7.1008 22.506C6.58747 22.8737 5.8424 22.8116 5.39627 22.3673L3.63333 20.6043C3.17307 20.1432 3.11493 19.4261 3.4944 18.8981L4.99387 16.8073C4.86347 16.5329 4.7472 16.2531 4.64587 15.9691L2.10773 15.5509C1.46533 15.4443 1 14.8946 1 14.2463V11.7542C1 11.1027 1.46587 10.5536 2.10773 10.4485L4.6456 10.0304C4.74667 9.74742 4.86293 9.46767 4.99307 9.19379L3.49333 7.10194C3.11547 6.57258 3.17387 5.85547 3.63253 5.39624L5.39493 3.63401C5.8408 3.18759 6.58773 3.12572 7.10107 3.49427L9.19253 4.99382C9.4664 4.86341 9.74667 4.74741 10.0299 4.64634L10.4483 2.10673C10.5539 1.46563 11.1024 1 11.7528 1H14.2453C14.8955 1 15.4437 1.46563 15.5501 2.10673L15.9683 4.64634C16.252 4.74741 16.5312 4.86341 16.8059 4.99382L18.8976 3.49427C19.4117 3.12572 20.1587 3.18759 20.6043 3.63455L22.3656 5.39571C22.8251 5.85467 22.8837 6.57178 22.5051 7.10087L21.0045 9.19405C21.1357 9.469 21.252 9.74875 21.3525 10.0306L23.8915 10.4493C24.5333 10.5536 25 11.1019 25 11.7531V14.2453C25 14.8973 24.5328 15.4459 23.8912 15.5501L21.3531 15.9694C21.2525 16.2518 21.1365 16.5318 21.0051 16.8065L22.5061 18.8983C22.8853 19.4274 22.8259 20.1443 22.3667 20.604L20.6043 22.3655C20.3547 22.6156 20.0219 22.7535 19.6677 22.7535C19.3907 22.7535 19.1245 22.6681 18.8984 22.5065L16.8056 21.0059C16.5317 21.1366 16.2525 21.2529 15.9696 21.3539L15.5504 23.893C15.4448 24.5344 14.8963 25 14.2464 25ZM9.13707 19.6736C9.23573 19.6736 9.33493 19.6965 9.4256 19.745C9.8536 19.9717 10.3019 20.1581 10.7589 20.2981C10.9824 20.3675 11.1475 20.5566 11.1856 20.7867L11.6648 23.6925C11.672 23.7362 11.7091 23.7679 11.7536 23.7679H14.2467C14.2904 23.7679 14.3285 23.7367 14.3352 23.693L14.8155 20.7867C14.8531 20.5566 15.0187 20.3675 15.2416 20.2981C15.6957 20.1587 16.1448 19.972 16.5749 19.7445C16.7805 19.6341 17.0312 19.6522 17.2219 19.7882L19.6165 21.5054C19.6859 21.5217 19.7109 21.5174 19.7328 21.495L21.4963 19.733C21.5269 19.7018 21.5307 19.6517 21.5056 19.6154L19.788 17.2225C19.6515 17.0318 19.6344 16.7814 19.7443 16.575C19.9728 16.1427 20.1595 15.6941 20.2979 15.2416C20.3661 15.0176 20.5547 14.8525 20.7859 14.8144L23.692 14.3346C23.7368 14.3274 23.7685 14.2898 23.7685 14.245V11.7529C23.7685 11.7081 23.7363 11.671 23.6925 11.6643L20.7864 11.1851C20.5552 11.147 20.3661 10.9816 20.2979 10.7579C20.1592 10.3061 19.9733 9.85729 19.7443 9.425C19.6344 9.21886 19.6515 8.96764 19.7875 8.77776L21.5045 6.3827C21.5301 6.34723 21.5264 6.29656 21.4957 6.26616L19.7333 4.50419C19.7109 4.48206 19.6869 4.47779 19.6699 4.47779L17.2219 6.21122C17.0307 6.34696 16.7803 6.36403 16.5739 6.25442C16.1453 6.02695 15.6973 5.84134 15.2421 5.70213C15.0181 5.63439 14.852 5.44478 14.8144 5.2133L14.3352 2.30647C14.3285 2.263 14.2904 2.23127 14.2461 2.23127H11.7536C11.7091 2.23127 11.672 2.263 11.6648 2.30701L11.1856 5.2141C11.1475 5.44505 10.9816 5.63466 10.7579 5.70239C10.3024 5.84214 9.8544 6.02721 9.42613 6.25469C9.21947 6.3643 8.96853 6.34723 8.77867 6.21149L6.38373 4.49459C6.3136 4.47593 6.28907 4.48153 6.2672 4.50419L4.5048 6.26616C4.47333 6.29736 4.4696 6.34723 4.49573 6.38457L6.212 8.77803C6.34773 8.96791 6.36507 9.21912 6.25573 9.42527C6.02853 9.85329 5.84293 10.3019 5.70267 10.7587C5.63387 10.9819 5.44453 11.1472 5.21387 11.1854L2.30773 11.6641C2.26347 11.6713 2.232 11.7091 2.232 11.7542V14.2463C2.232 14.2906 2.26453 14.3293 2.30933 14.3365L5.2136 14.8146C5.44427 14.8528 5.63387 15.0178 5.7024 15.2419C5.8424 15.6981 6.02827 16.1472 6.25547 16.5747C6.36507 16.7809 6.34827 17.0321 6.21173 17.2228L4.49493 19.6173C4.46907 19.6528 4.4736 19.7032 4.50453 19.7341L6.26693 21.4966C6.2896 21.519 6.3168 21.5222 6.33093 21.5222L8.7784 19.7893C8.8848 19.7122 9.01067 19.6736 9.13707 19.6736ZM12.9995 17.3388C10.6067 17.3388 8.66053 15.3917 8.66053 12.9996C8.66053 10.6072 10.6067 8.66069 12.9995 8.66069C15.3923 8.66069 17.3387 10.6072 17.3387 12.9996C17.3387 15.3917 15.3923 17.3388 12.9995 17.3388ZM12.9995 9.89249C11.2861 9.89249 9.89227 11.2864 9.89227 12.9993C9.89227 14.7122 11.2864 16.1067 12.9995 16.1067C14.7131 16.1067 16.1069 14.7122 16.1069 12.9993C16.1067 11.2864 14.7131 9.89249 12.9995 9.89249Z" fill="black" stroke="black" stroke-width="0.2"/>
</svg>
